<?xml version="1.0" standalone="no"?>
<svg viewBox="0 0 200 200" xmlns="http://www.w3.org/2000/svg">
  <path fill="#E9F4DF" d="M22.8,-40.4C26.2,-37.6,23.2,-24.6,34.6,-16.2C46.1,-7.7,72,-3.9,74.8,1.7C77.7,7.2,57.5,14.4,45.7,22.2C33.9,30,30.5,38.5,24.3,47.7C18.1,57,9,67,2.9,62C-3.3,57,-6.6,37.1,-14.4,28.8C-22.3,20.5,-34.7,23.8,-41.7,21C-48.7,18.1,-50.3,9.1,-53.1,-1.6C-55.9,-12.3,-59.8,-24.5,-53.3,-28.3C-46.8,-32,-29.9,-27.2,-19.3,-25.8C-8.6,-24.3,-4.3,-26.2,2.7,-30.9C9.7,-35.6,19.5,-43.1,22.8,-40.4Z" transform="translate(100 100)" />
</svg>
