<?xml version="1.0" standalone="no"?>
<svg viewBox="0 0 200 200" xmlns="http://www.w3.org/2000/svg">
  <path fill="#808080" d="M31.6,-50.7C45.1,-46.9,63.1,-46.9,70,-39.1C76.8,-31.2,72.4,-15.6,71.6,-0.5C70.8,14.7,73.6,29.4,69.8,42.5C66,55.5,55.6,67,42.9,72.3C30.2,77.6,15.1,76.8,6.4,65.7C-2.3,54.6,-4.6,33.3,-19.1,29C-33.5,24.7,-60,37.3,-66.7,35.3C-73.3,33.3,-60,16.7,-49.6,6C-39.2,-4.6,-31.6,-9.3,-30.8,-21.3C-30,-33.4,-35.9,-52.9,-31.9,-62.2C-27.9,-71.6,-13.9,-70.7,-2.5,-66.4C9,-62.2,18.1,-54.6,31.6,-50.7Z" transform="translate(100 100)" />
</svg>