<?xml version="1.0" encoding="UTF-8"?>
<svg viewBox="0 0 744.09448819 1052.3622047" xmlns="http://www.w3.org/2000/svg">
 <path d="m456.69 230.88c-4.2457 0.04074-9.442 1.2198-15.844 3.75-15.669 8.3812-23.303 18.021-27.062 25.062-1.993 3.7324-3.0344 7.2521-2.125 10.594s3.5566 6.0993 7.5938 8.2812c10.875 5.8778 22.035 4.133 30.875-1.1875s15.535-14.078 18.219-22.719c1.2791-4.1183 1.9604-8.0382 1.7812-11.531s-1.2489-6.6277-3.5312-8.875-5.6606-3.4157-9.9062-3.375z" fill-rule="evenodd" stroke="#000" stroke-width="2"/>
 <path d="m436.87 279.92c36.538-24.467 21.83-37.784 23.263-45.43 7.7088 16.374 9.7948 32.3-23.263 45.43z" fill="#fff" fill-rule="evenodd"/>
 <path d="m304.16 211.31c-28.021 10.935-46.402 23.616-57.188 38.688s-18.79 32.298-16.255 50.406c5.0708 36.217 25.45 79.936 47.582 128.52 15.304 33.593 21.562 70.573-34.526 167.29l-2.6447 28.852 34.332-1.7253s158.48-37.644 188.78-182.24c14.859-70.917 7.8776-123.71-0.42436-153.63-4.151-14.961-5.0402-17.408-9.2353-24.303s-13.38-0.11081-9.7188 5.9062 4.0819 7.5037 7.954 21.46c7.7443 27.912 12.153 73.388-2.4062 142.88-23.927 114.2-146.49 161.17-185.84 173.53 50.073-91.215 49.988-149.15 33.469-185.41-22.417-49.207-46.169-90.418-50.688-122.69-2.259-16.135-0.0558-29.696 8.9062-42.219s25.228-24.228 52.031-34.688l-4.125-10.625z" fill="#b7b7b7" fill-rule="evenodd" stroke="#000" stroke-width="1.8"/>
 <path d="m203.25 617.78c24.069-32.092 79.614-39.148 72.208 17.383-4.75 36.255-38.281 48.179-50.813 58.836s-56.708-15.121-45.464-36.104l24.069-40.115z" fill-rule="evenodd"/>
 <path d="m189.22 678.48c-21.715 58.722-36.548 112.23-131.76 172.32l21.469 15.344c85.671-56.371 114.41-126.2 131.76-172.32-2.4577-8.0512-6.4611-15.136-21.469-15.344z" fill="#b7b7b7" fill-rule="evenodd" stroke="#000" stroke-width="2.2"/>
 <path d="m330.47 192.03c-3.5417-0.07636-7.9576 0.61621-13.469 2.1875h-0.0625l-0.0625 0.03125c-11.978 4.3827-19.77 9.6364-24.406 15.125s-6.0486 11.292-5.0312 16.281c2.0348 9.9783 13.378 16.275 24.156 12.219 10.667-4.0144 23.039-17.202 27.875-28.469 1.209-2.8166 1.9375-5.5564 1.9375-8.0938s-0.84855-4.9666-2.75-6.6562-4.6458-2.5486-8.1875-2.625z" fill-rule="evenodd" stroke="#000" stroke-width="2"/>
 <path d="m68.196 847.77c28.081 21.395 25.406 42.79-6.6859 64.185s-82.905 42.79-82.905 42.79c-0.1024-0.55126 25.382-25.496 29.408-29.236 7.4291-6.9004-33.301 20.09-31.977 17.924 3.5485-5.8063 24.893-24.887 24.344-25.738-1.2425-1.9256-28.214 26.475-26.625 22.367 3.2274-8.3451 20.058-25.879 18.642-27.354-2.2204-2.3134-25.833 26.457-25.426 23.147 0.96512-7.8447 15.134-18.436 12.581-20.421-3.299-2.5645-21.041 19.661-22.016 16.53l10.305-16.957-17.576 14.067s39.038-59.908 71.131-79.966 45.464 1.3372 46.801-1.3372z" fill-rule="evenodd"/>
 <path d="m235.39 599.16c-8.0104 9.6743-25.802 37.15-37.315 55.976l37.315-55.976zm-0.1017 0.08383c-0.02777 0.02202-0.06641 0.0722-0.09437 0.09458l-0.03877 0.02077c-12.914 3.2154-30.871 25.895-40.764 43.204l29.129-33.178c-8.5712 10.366-18.842 26.873-26.091 37.877l37.86-48.018z" fill="#fff" fill-rule="evenodd"/>
 <path d="m223.01 687.87c8.7672-8.9942 28.724-34.94 41.723-52.772l-41.723 52.772zm0.10816-0.07533c0.02946-0.0197 0.07203-0.06659 0.1017-0.08663l0.04034-0.01756c13.132-2.1596 32.866-23.312 44.127-39.762l-31.719 30.711c9.3821-9.6384 20.955-25.26 29.072-35.641l-41.622 44.797z" fill="#fff" fill-rule="evenodd"/>
 <path d="m39.812 916.53c8.7672-8.9942 28.724-34.94 41.723-52.772l-41.723 52.772zm0.10816-0.07533c0.02946-0.0197 0.07203-0.06659 0.1017-0.08663l0.04034-0.01756c13.132-2.1596 32.866-23.312 44.127-39.762l-31.719 30.711c9.3821-9.6384 20.955-25.26 29.072-35.641l-41.622 44.797z" fill="#fff" fill-rule="evenodd"/>
 <path d="m43.32 848.17c-9.8676 7.7711-33.044 30.886-48.263 46.866l48.263-46.866zm-0.11708 0.06054c-0.03178 0.01568-0.08012 0.05661-0.11215 0.0726-0.01666 0.00828-0.02557 0.00375-0.04229 0.01213-13.301 0.42465-35.631 18.816-48.946 33.654l35.461-26.302c-10.561 8.3294-24.077 22.304-33.481 31.536l47.12-38.972z" fill="#fff" fill-rule="evenodd"/>
 <path d="m333.07 196.99c-26.512 5.1237-35.728 16.931-39.004 26.013-2.3465 6.5056 4.6489-30.44 39.004-26.013z" fill="#fff" fill-rule="evenodd"/>
</svg>
