<?xml version="1.0" encoding="utf-8"?>
<!-- Generator: Adobe Illustrator 18.1.1, SVG Export Plug-In . SVG Version: 6.00 Build 0)  -->
<svg version="1.1" baseProfile="basic" id="Layer_1"
	 xmlns="http://www.w3.org/2000/svg" xmlns:xlink="http://www.w3.org/1999/xlink" x="0px" y="0px" viewBox="0 0 1920 1150"
	 xml:space="preserve">
<g>
	<g>
		<g>
			
				<rect x="1104.6" y="723.5" transform="matrix(0.3511 0.9363 -0.9363 0.3511 1440.2939 -547.8369)" fill="#1EA8B0" width="21.7" height="83.4"/>
			
				<ellipse transform="matrix(0.3511 0.9363 -0.9363 0.3511 1451.9271 -593.9174)" fill="#1EA8B0" cx="1154.5" cy="750.6" rx="28.6" ry="19.6"/>
		</g>
		<g>
			
				<rect x="1052.1" y="675.8" transform="matrix(0.7722 0.6353 -0.6353 0.7722 687.5127 -512.825)" fill="#1A8E95" width="13.8" height="53.3"/>
			
				<ellipse transform="matrix(0.7722 0.6353 -0.6353 0.7722 678.296 -528.2668)" fill="#1A8E95" cx="1075.9" cy="681.9" rx="18.2" ry="12.5"/>
		</g>
		<g>
			
				<rect x="896.5" y="651.4" transform="matrix(0.9363 -0.3511 0.3511 0.9363 -180.5341 360.3309)" fill="#1A8E95" width="13.8" height="53.3"/>
			
				<ellipse transform="matrix(0.9363 -0.3511 0.3511 0.9363 -172.3704 355.4583)" fill="#1A8E95" cx="894" cy="653.1" rx="18.2" ry="12.5"/>
		</g>
		<g>
			
				<rect x="797.5" y="773.9" transform="matrix(0.1641 -0.9864 0.9864 0.1641 -117.3177 1462.6381)" fill="#1A8E95" width="13.8" height="53.3"/>
			
				<ellipse transform="matrix(0.1641 -0.9864 0.9864 0.1641 -134.9741 1433.0563)" fill="#1A8E95" cx="778.1" cy="796.2" rx="18.2" ry="12.5"/>
		</g>
		<g>
			
				<rect x="854.1" y="920.9" transform="matrix(-0.7722 -0.6353 0.6353 -0.7722 923.8876 2226.3)" fill="#1A8E95" width="13.8" height="53.3"/>
			
				<ellipse transform="matrix(-0.7722 -0.6353 0.6353 -0.7722 880.814 2252.009)" fill="#1A8E95" cx="844.1" cy="968.1" rx="18.2" ry="12.5"/>
		</g>
		<g>
			
				<rect x="1009.7" y="945.4" transform="matrix(-0.9363 0.3511 -0.3511 -0.9363 2309.8049 1525.1869)" fill="#1A8E95" width="13.8" height="53.3"/>
			
				<ellipse transform="matrix(-0.9363 0.3511 -0.3511 -0.9363 2336.6782 1570.2107)" fill="#1A8E95" cx="1026" cy="996.9" rx="18.2" ry="12.5"/>
		</g>
		<g>
			
				<rect x="1108.7" y="822.8" transform="matrix(-0.1641 0.9864 -0.9864 -0.1641 2136.6467 -111.6308)" fill="#1A8E95" width="13.8" height="53.3"/>
			
				<ellipse transform="matrix(-0.1641 0.9864 -0.9864 -0.1641 2171.5566 -132.4675)" fill="#1A8E95" cx="1141.9" cy="853.8" rx="18.2" ry="12.5"/>
		</g>
		<g>
			
				<rect x="975.1" y="618.8" transform="matrix(0.9864 0.1641 -0.1641 0.9864 121.7688 -152.8474)" fill="#1EA8B0" width="21.7" height="83.4"/>
			
				<ellipse transform="matrix(0.9864 0.1641 -0.1641 0.9864 115.1079 -154.5289)" fill="#1EA8B0" cx="992.8" cy="619.4" rx="28.6" ry="19.6"/>
		</g>
		<g>
			
				<rect x="819.7" y="678.6" transform="matrix(0.6353 -0.7722 0.7722 0.6353 -253.3874 904.0222)" fill="#1EA8B0" width="21.7" height="83.4"/>
			
				<ellipse transform="matrix(0.6353 -0.7722 0.7722 0.6353 -244.6667 869.4785)" fill="#1EA8B0" cx="798.3" cy="693.8" rx="28.6" ry="19.6"/>
		</g>
		<g>
			
				<rect x="793.8" y="843.1" transform="matrix(-0.3511 -0.9363 0.9363 -0.3511 258.6392 1948.8013)" fill="#1EA8B0" width="21.7" height="83.4"/>
			
				<ellipse transform="matrix(-0.3511 -0.9363 0.9363 -0.3511 192.147 1932.015)" fill="#1EA8B0" cx="765.5" cy="899.4" rx="28.6" ry="19.6"/>
		</g>
		<g>
			
				<rect x="923.2" y="947.8" transform="matrix(-0.9864 -0.1641 0.1641 -0.9864 1693.0935 2118.8147)" fill="#1EA8B0" width="21.7" height="83.4"/>
			
				<ellipse transform="matrix(-0.9864 -0.1641 0.1641 -0.9864 1672.7396 2199.4387)" fill="#1EA8B0" cx="927.2" cy="1030.6" rx="28.6" ry="19.6"/>
		</g>
		<g>
			
				<rect x="1078.6" y="888" transform="matrix(-0.6353 0.7722 -0.7722 -0.6353 2499.592 679.046)" fill="#1EA8B0" width="21.7" height="83.4"/>
			
				<ellipse transform="matrix(-0.6353 0.7722 -0.7722 -0.6353 2572.7451 697.5137)" fill="#1EA8B0" cx="1121.7" cy="956.2" rx="28.6" ry="19.6"/>
		</g>
		<circle fill="#5AC7D9" cx="958.6" cy="821.1" r="151.6"/>
		<circle fill="#1D9DA3" cx="983.9" cy="774.2" r="21.5"/>
		
			<ellipse transform="matrix(0.3511 0.9363 -0.9363 0.3511 1446.3143 -379.2131)" fill="#1D9DA3" cx="996.8" cy="853.9" rx="18.3" ry="15.9"/>
		
			<ellipse transform="matrix(0.3511 0.9363 -0.9363 0.3511 1471.1449 -458.1912)" fill="#1D9DA3" cx="1066.1" cy="832.3" rx="14.1" ry="12.4"/>
		
			<ellipse transform="matrix(0.3511 0.9363 -0.9363 0.3511 1387.0521 -481.2291)" fill="#1D9DA3" cx="1040.7" cy="760.1" rx="20.2" ry="16.3"/>
		<circle fill="#1D9DA3" cx="901.9" cy="743.4" r="23"/>
		<circle fill="#1D9DA3" cx="995.8" cy="696.4" r="11"/>
		<circle fill="#1D9DA3" cx="961.4" cy="714.1" r="23.4"/>
		<circle fill="#1D9DA3" cx="940.1" cy="828" r="16.4"/>
		<circle fill="#1D9DA3" cx="952.2" cy="906.8" r="17"/>
		<circle fill="#1D9DA3" cx="1035.4" cy="893.8" r="22.1"/>
		<circle fill="#1D9DA3" cx="1022.8" cy="811.5" r="12.2"/>
		
			<ellipse transform="matrix(0.3511 0.9363 -0.9363 0.3511 1445.8051 -493.3148)" fill="#1D9DA3" cx="1078.8" cy="796.5" rx="15" ry="10.7"/>
		
			<ellipse transform="matrix(0.3511 0.9363 -0.9363 0.3511 1407.084 -513.6285)" fill="#1D9DA3" cx="1074.1" cy="758.4" rx="10.1" ry="5.5"/>
		
			<ellipse transform="matrix(0.3511 0.9363 -0.9363 0.3511 1344.4509 -495.9821)" fill="#1D9DA3" cx="1030.1" cy="722" rx="11.2" ry="7.4"/>
		
			<ellipse transform="matrix(0.3511 0.9363 -0.9363 0.3511 1339.3365 -459.5996)" fill="#1D9DA3" cx="1001.3" cy="736.5" rx="5.5" ry="6.1"/>
		
			<ellipse transform="matrix(0.3511 0.9363 -0.9363 0.3511 1336.9456 -351.4529)" fill="#1D9DA3" cx="922" cy="788.8" rx="8" ry="6"/>
		
			<ellipse transform="matrix(0.3511 0.9363 -0.9363 0.3511 1315.7935 -317.0049)" fill="#1D9DA3" cx="886.6" cy="790.8" rx="10.6" ry="10.8"/>
		
			<ellipse transform="matrix(0.3511 0.9363 -0.9363 0.3511 1377.5519 -270.8204)" fill="#1D9DA3" cx="884.2" cy="858.5" rx="16.9" ry="13.1"/>
		
			<ellipse transform="matrix(0.3511 0.9363 -0.9363 0.3511 1419.1852 -301.505)" fill="#1D9DA3" cx="927.1" cy="873.2" rx="6.4" ry="9"/>
		
			<ellipse transform="matrix(0.3511 0.9363 -0.9363 0.3511 1520.8179 -323.3522)" fill="#1D9DA3" cx="993.7" cy="935.6" rx="12" ry="15.6"/>
		
			<ellipse transform="matrix(0.3511 0.9363 -0.9363 0.3511 1460.0936 -258.9181)" fill="#1D9DA3" cx="916.9" cy="924" rx="16.8" ry="7.6"/>
		
			<ellipse transform="matrix(0.3511 0.9363 -0.9363 0.3511 1516.9017 -447.4703)" fill="#1D9DA3" cx="1081.3" cy="870.7" rx="11.5" ry="13.1"/>
		
			<ellipse transform="matrix(0.3511 0.9363 -0.9363 0.3511 1542.1187 -361.6676)" fill="#1D9DA3" cx="1032" cy="931.8" rx="5.6" ry="5.7"/>
		
			<ellipse transform="matrix(0.3511 0.9363 -0.9363 0.3511 1486.2633 -340.6083)" fill="#1D9DA3" cx="988.9" cy="902" rx="5.9" ry="5.5"/>
		
			<ellipse transform="matrix(0.3511 0.9363 -0.9363 0.3511 1441.0067 -340.0282)" fill="#1D9DA3" cx="965.8" cy="869.6" rx="10.3" ry="8.8"/>
		
			<ellipse transform="matrix(0.3511 0.9363 -0.9363 0.3511 1406.4761 -386.8123)" fill="#1D9DA3" cx="982.3" cy="821.3" rx="10.6" ry="7.7"/>
		
			<ellipse transform="matrix(0.3511 0.9363 -0.9363 0.3511 1275.4489 -292.6893)" fill="#1D9DA3" cx="848.9" cy="773.9" rx="15" ry="9.8"/>
		
			<ellipse transform="matrix(0.3511 0.9363 -0.9363 0.3511 1339.5206 -258.6962)" fill="#1D9DA3" cx="856.4" cy="837.1" rx="7.4" ry="11"/>
		
			<ellipse transform="matrix(0.3511 0.9363 -0.9363 0.3511 1308.5404 -256.9339)" fill="#1D9DA3" cx="839.6" cy="815.6" rx="11.9" ry="8.2"/>
		
			<ellipse transform="matrix(0.3511 0.9363 -0.9363 0.3511 1372.1179 -227.3931)" fill="#1D9DA3" cx="850.1" cy="876.3" rx="12.2" ry="8.6"/>
		
			<ellipse transform="matrix(0.3511 0.9363 -0.9363 0.3511 1427.4066 -227.6379)" fill="#1D9DA3" cx="877.9" cy="916" rx="12.3" ry="5.9"/>
		<circle fill="#1D9DA3" cx="894.8" cy="896.3" r="7.4"/>
		<circle fill="#1D9DA3" cx="912.2" cy="836.3" r="9.3"/>
		<circle fill="#1D9DA3" cx="890.4" cy="824.3" r="7.4"/>
		<circle fill="#1D9DA3" cx="859" cy="734.9" r="6.9"/>
		<circle fill="#1D9DA3" cx="914" cy="702.5" r="10.4"/>
		<circle fill="#1D9DA3" cx="939.2" cy="765.6" r="8.9"/>
		<circle fill="#1D9DA3" cx="1035.8" cy="851.3" r="11.3"/>
		<circle fill="#1D9DA3" cx="957.3" cy="953.7" r="6.6"/>
		<circle fill="#1D9DA3" cx="934.3" cy="955.3" r="4.8"/>
		<circle fill="#1D9DA3" cx="946.1" cy="939.1" r="7.1"/>
		<circle fill="#1D9DA3" cx="893.6" cy="941" r="7"/>
		<circle fill="#1D9DA3" cx="846.9" cy="910" r="6.2"/>
		<circle fill="#1D9DA3" cx="825.1" cy="851.7" r="6.2"/>
		<circle fill="#1D9DA3" cx="819.8" cy="796.1" r="6.7"/>
		
			<ellipse transform="matrix(-0.3511 -0.9363 0.9363 -0.3511 698.2436 2153.7698)" fill="#1D9DA3" cx="1095.4" cy="834.9" rx="8.4" ry="6.9"/>
	</g>
	<g>
		<g>
			
				<rect x="1524.4" y="627.9" transform="matrix(0.9363 -0.3511 0.3511 0.9363 -137.3613 581.6361)" fill="#B13981" width="21.7" height="83.4"/>
			
				<ellipse transform="matrix(0.9363 -0.3511 0.3511 0.9363 -124.579 574.0068)" fill="#B13981" cx="1520.6" cy="630.5" rx="28.6" ry="19.6"/>
		</g>
		<g>
			
				<rect x="1465.5" y="699.4" transform="matrix(0.6353 -0.7722 0.7722 0.6353 -23.7074 1401.8142)" fill="#962F63" width="13.8" height="53.3"/>
			
				<ellipse transform="matrix(0.6353 -0.7722 0.7722 0.6353 -18.1378 1379.7522)" fill="#962F63" cx="1451.9" cy="709.1" rx="18.2" ry="12.5"/>
		</g>
		<g>
			
				<rect x="1441.1" y="855" transform="matrix(-0.3511 -0.9363 0.9363 -0.3511 1130.8821 2546.9863)" fill="#962F63" width="13.8" height="53.3"/>
			
				<ellipse transform="matrix(-0.3511 -0.9363 0.9363 -0.3511 1088.4155 2536.2656)" fill="#962F63" cx="1423.1" cy="891" rx="18.2" ry="12.5"/>
		</g>
		<g>
			
				<rect x="1563.6" y="954" transform="matrix(-0.9864 -0.1641 0.1641 -0.9864 2958.8604 2205.6899)" fill="#962F63" width="13.8" height="53.3"/>
			
				<ellipse transform="matrix(-0.9864 -0.1641 0.1641 -0.9864 2945.8611 2257.1824)" fill="#962F63" cx="1566.2" cy="1006.9" rx="18.2" ry="12.5"/>
		</g>
		<g>
			
				<rect x="1710.6" y="897.3" transform="matrix(-0.6353 0.7722 -0.7722 -0.6353 3522.3071 184.7105)" fill="#962F63" width="13.8" height="53.3"/>
			
				<ellipse transform="matrix(-0.6353 0.7722 -0.7722 -0.6353 3569.0278 196.5053)" fill="#962F63" cx="1738.1" cy="940.9" rx="18.2" ry="12.5"/>
		</g>
		<g>
			
				<rect x="1735.1" y="741.7" transform="matrix(0.3511 0.9363 -0.9363 0.3511 1849.8469 -1132.5042)" fill="#962F63" width="13.8" height="53.3"/>
			
				<ellipse transform="matrix(0.3511 0.9363 -0.9363 0.3511 1857.2766 -1161.9344)" fill="#962F63" cx="1766.9" cy="759" rx="18.2" ry="12.5"/>
		</g>
		<g>
			
				<rect x="1612.5" y="642.7" transform="matrix(0.9864 0.1641 -0.1641 0.9864 131.8106 -256.6971)" fill="#962F63" width="13.8" height="53.3"/>
			
				<ellipse transform="matrix(0.9864 0.1641 -0.1641 0.9864 127.5565 -257.771)" fill="#962F63" cx="1623.8" cy="643.1" rx="18.2" ry="12.5"/>
		</g>
		<g>
			
				<rect x="1419.7" y="757.4" transform="matrix(0.1641 -0.9864 0.9864 0.1641 407.5266 2079.0693)" fill="#B13981" width="21.7" height="83.4"/>
			
				<ellipse transform="matrix(0.1641 -0.9864 0.9864 0.1641 379.8812 2032.7513)" fill="#B13981" cx="1389.4" cy="792.2" rx="28.6" ry="19.6"/>
		</g>
		<g>
			
				<rect x="1479.5" y="912.8" transform="matrix(-0.7722 -0.6353 0.6353 -0.7722 2034.7502 2638.4004)" fill="#B13981" width="21.7" height="83.4"/>
			
				<ellipse transform="matrix(-0.7722 -0.6353 0.6353 -0.7722 1967.3077 2678.6545)" fill="#B13981" cx="1463.8" cy="986.7" rx="28.6" ry="19.6"/>
		</g>
		<g>
			
				<rect x="1644" y="938.7" transform="matrix(-0.9363 0.3511 -0.3511 -0.9363 3548.428 1317.3997)" fill="#B13981" width="21.7" height="83.4"/>
			
				<ellipse transform="matrix(-0.9363 0.3511 -0.3511 -0.9363 3590.5049 1387.8958)" fill="#B13981" cx="1669.4" cy="1019.5" rx="28.6" ry="19.6"/>
		</g>
		<g>
			
				<rect x="1748.6" y="809.2" transform="matrix(-0.1641 0.9864 -0.9864 -0.1641 2887.6111 -745.0365)" fill="#B13981" width="21.7" height="83.4"/>
			
				<ellipse transform="matrix(-0.1641 0.9864 -0.9864 -0.1641 2942.2715 -777.6612)" fill="#B13981" cx="1800.6" cy="857.8" rx="28.6" ry="19.6"/>
		</g>
		<g>
			
				<rect x="1688.9" y="653.8" transform="matrix(0.7722 0.6353 -0.6353 0.7722 829.0452 -921.4687)" fill="#B13981" width="21.7" height="83.4"/>
			
				<ellipse transform="matrix(0.7722 0.6353 -0.6353 0.7722 814.6141 -945.6469)" fill="#B13981" cx="1726.2" cy="663.3" rx="28.6" ry="19.6"/>
		</g>
		<circle fill="#9B509F" cx="1591.1" cy="826.4" r="151.6"/>
		<circle fill="#A53272" cx="1544.2" cy="801.1" r="21.5"/>
		
			<ellipse transform="matrix(0.9363 -0.3511 0.3511 0.9363 -173.3742 620.3157)" fill="#A53272" cx="1623.9" cy="788.2" rx="18.3" ry="15.9"/>
		
			<ellipse transform="matrix(0.9363 -0.3511 0.3511 0.9363 -150.383 608.3233)" fill="#A53272" cx="1602.3" cy="718.9" rx="14.1" ry="12.4"/>
		
			<ellipse transform="matrix(0.9363 -0.3511 0.3511 0.9363 -163.9052 584.5963)" fill="#A53272" cx="1530.1" cy="744.3" rx="20.2" ry="16.3"/>
		<circle fill="#A53272" cx="1513.4" cy="883.1" r="23"/>
		<circle fill="#A53272" cx="1466.4" cy="789.2" r="11"/>
		<circle fill="#A53272" cx="1484.1" cy="823.6" r="23.4"/>
		<circle fill="#A53272" cx="1598" cy="844.9" r="16.4"/>
		<circle fill="#A53272" cx="1676.8" cy="832.8" r="17"/>
		<circle fill="#A53272" cx="1663.8" cy="749.6" r="22.1"/>
		<circle fill="#A53272" cx="1581.5" cy="762.2" r="12.2"/>
		
			<ellipse transform="matrix(0.9363 -0.3511 0.3511 0.9363 -148.2161 594.9321)" fill="#A53272" cx="1566.5" cy="706.2" rx="15" ry="10.7"/>
		
			<ellipse transform="matrix(0.9363 -0.3511 0.3511 0.9363 -152.2929 581.8572)" fill="#A53272" cx="1528.4" cy="710.9" rx="10.1" ry="5.5"/>
		
			<ellipse transform="matrix(0.9363 -0.3511 0.3511 0.9363 -170.073 571.8937)" fill="#A53272" cx="1492" cy="754.9" rx="11.2" ry="7.4"/>
		
			<ellipse transform="matrix(0.9363 -0.3511 0.3511 0.9363 -179.2636 578.8188)" fill="#A53272" cx="1506.5" cy="783.7" rx="5.5" ry="6.1"/>
		
			<ellipse transform="matrix(0.9363 -0.3511 0.3511 0.9363 -203.7452 602.2413)" fill="#A53272" cx="1558.8" cy="863" rx="8" ry="6"/>
		
			<ellipse transform="matrix(0.9363 -0.3511 0.3511 0.9363 -216.0593 605.186)" fill="#A53272" cx="1560.8" cy="898.4" rx="10.6" ry="10.8"/>
		
			<ellipse transform="matrix(0.9363 -0.3511 0.3511 0.9363 -212.61 629.093)" fill="#A53272" cx="1628.5" cy="900.8" rx="16.9" ry="13.1"/>
		
			<ellipse transform="matrix(0.9363 -0.3511 0.3511 0.9363 -196.5933 631.5178)" fill="#A53272" cx="1643.2" cy="857.9" rx="6.4" ry="9"/>
		
			<ellipse transform="matrix(0.9363 -0.3511 0.3511 0.9363 -169.2453 649.1885)" fill="#A53272" cx="1705.6" cy="791.3" rx="12" ry="15.6"/>
		
			<ellipse transform="matrix(0.9363 -0.3511 0.3511 0.9363 -196.965 650.0102)" fill="#A53272" cx="1694" cy="868.1" rx="16.8" ry="7.6"/>
		
			<ellipse transform="matrix(0.9363 -0.3511 0.3511 0.9363 -142.6233 620.8318)" fill="#A53272" cx="1640.7" cy="703.7" rx="11.5" ry="13.1"/>
		
			<ellipse transform="matrix(0.9363 -0.3511 0.3511 0.9363 -156.0417 645.4202)" fill="#A53272" cx="1701.8" cy="753" rx="5.6" ry="5.7"/>
		
			<ellipse transform="matrix(0.9363 -0.3511 0.3511 0.9363 -173.0765 637.7136)" fill="#A53272" cx="1672" cy="796.1" rx="5.9" ry="5.5"/>
		
			<ellipse transform="matrix(0.9363 -0.3511 0.3511 0.9363 -183.2283 627.8188)" fill="#A53272" cx="1639.6" cy="819.2" rx="10.3" ry="8.8"/>
		
			<ellipse transform="matrix(0.9363 -0.3511 0.3511 0.9363 -180.5144 609.8094)" fill="#A53272" cx="1591.3" cy="802.7" rx="10.6" ry="7.7"/>
		
			<ellipse transform="matrix(0.9363 -0.3511 0.3511 0.9363 -230.3801 601.636)" fill="#A53272" cx="1543.9" cy="936.1" rx="15" ry="9.8"/>
		
			<ellipse transform="matrix(0.9363 -0.3511 0.3511 0.9363 -223.7183 623.3551)" fill="#A53272" cx="1607.1" cy="928.6" rx="7.4" ry="11"/>
		
			<ellipse transform="matrix(0.9363 -0.3511 0.3511 0.9363 -230.9701 616.884)" fill="#A53272" cx="1585.6" cy="945.4" rx="11.9" ry="8.2"/>
		
			<ellipse transform="matrix(0.9363 -0.3511 0.3511 0.9363 -223.4317 637.5076)" fill="#A53272" cx="1646.3" cy="934.9" rx="12.2" ry="8.6"/>
		
			<ellipse transform="matrix(0.9363 -0.3511 0.3511 0.9363 -211.1323 649.6986)" fill="#A53272" cx="1686" cy="907.1" rx="12.3" ry="5.9"/>
		<circle fill="#A53272" cx="1666.3" cy="890.2" r="7.4"/>
		<circle fill="#A53272" cx="1606.3" cy="872.8" r="9.3"/>
		<circle fill="#A53272" cx="1594.3" cy="894.6" r="7.4"/>
		<circle fill="#A53272" cx="1504.9" cy="926" r="6.9"/>
		<circle fill="#A53272" cx="1472.5" cy="871" r="10.4"/>
		<circle fill="#A53272" cx="1535.6" cy="845.8" r="8.9"/>
		<circle fill="#A53272" cx="1621.3" cy="749.2" r="11.3"/>
		<circle fill="#A53272" cx="1723.7" cy="827.7" r="6.6"/>
		<circle fill="#A53272" cx="1725.3" cy="850.7" r="4.8"/>
		<circle fill="#A53272" cx="1709.1" cy="838.9" r="7.1"/>
		<circle fill="#A53272" cx="1711" cy="891.4" r="7"/>
		<circle fill="#A53272" cx="1680" cy="938.1" r="6.2"/>
		<circle fill="#A53272" cx="1621.7" cy="959.9" r="6.2"/>
		<circle fill="#A53272" cx="1566.1" cy="965.2" r="6.7"/>
		
			<ellipse transform="matrix(-0.9363 0.3511 -0.3511 -0.9363 3349.8062 771.7612)" fill="#A53272" cx="1604.9" cy="689.6" rx="8.4" ry="6.9"/>
	</g>
	<g>
		<g>
			
				<rect x="374" y="938.7" transform="matrix(-0.9363 0.3511 -0.3511 -0.9363 1089.2767 1763.2908)" fill="#98453D" width="21.7" height="83.4"/>
			
				<ellipse transform="matrix(-0.9363 0.3511 -0.3511 -0.9363 1131.3534 1833.7869)" fill="#98453D" cx="399.4" cy="1019.5" rx="28.6" ry="19.6"/>
		</g>
		<g>
			
				<rect x="440.6" y="897.3" transform="matrix(-0.6353 0.7722 -0.7722 -0.6353 1445.4176 1165.4393)" fill="#8D382F" width="13.8" height="53.3"/>
			
				<ellipse transform="matrix(-0.6353 0.7722 -0.7722 -0.6353 1492.1383 1177.2343)" fill="#8D382F" cx="468.1" cy="940.9" rx="18.2" ry="12.5"/>
		</g>
		<g>
			
				<rect x="465.1" y="741.7" transform="matrix(0.3511 0.9363 -0.9363 0.3511 1025.738 56.6472)" fill="#8D382F" width="13.8" height="53.3"/>
			
				<ellipse transform="matrix(0.3511 0.9363 -0.9363 0.3511 1033.1678 27.2169)" fill="#8D382F" cx="496.9" cy="759" rx="18.2" ry="12.5"/>
		</g>
		<g>
			
				<rect x="342.5" y="642.7" transform="matrix(0.9864 0.1641 -0.1641 0.9864 114.5915 -48.2745)" fill="#8D382F" width="13.8" height="53.3"/>
			
				<ellipse transform="matrix(0.9864 0.1641 -0.1641 0.9864 110.3374 -49.3484)" fill="#8D382F" cx="353.8" cy="643.1" rx="18.2" ry="12.5"/>
		</g>
		<g>
			
				<rect x="195.5" y="699.4" transform="matrix(0.6353 -0.7722 0.7722 0.6353 -486.8177 421.0854)" fill="#8D382F" width="13.8" height="53.3"/>
			
				<ellipse transform="matrix(0.6353 -0.7722 0.7722 0.6353 -481.248 399.0234)" fill="#8D382F" cx="181.9" cy="709.1" rx="18.2" ry="12.5"/>
		</g>
		<g>
			
				<rect x="171.1" y="855" transform="matrix(-0.3511 -0.9363 0.9363 -0.3511 -585.0091 1357.835)" fill="#8D382F" width="13.8" height="53.3"/>
			
				<ellipse transform="matrix(-0.3511 -0.9363 0.9363 -0.3511 -627.4757 1347.1141)" fill="#8D382F" cx="153.1" cy="891" rx="18.2" ry="12.5"/>
		</g>
		<g>
			
				<rect x="293.6" y="954" transform="matrix(-0.9864 -0.1641 0.1641 -0.9864 436.0796 1997.2673)" fill="#8D382F" width="13.8" height="53.3"/>
			
				<ellipse transform="matrix(-0.9864 -0.1641 0.1641 -0.9864 423.0801 2048.7598)" fill="#8D382F" cx="296.2" cy="1006.9" rx="18.2" ry="12.5"/>
		</g>
		<g>
			
				<rect x="478.6" y="809.2" transform="matrix(-0.1641 0.9864 -0.9864 -0.1641 1409.1886 507.7444)" fill="#98453D" width="21.7" height="83.4"/>
			
				<ellipse transform="matrix(-0.1641 0.9864 -0.9864 -0.1641 1463.8489 475.1197)" fill="#98453D" cx="530.6" cy="857.8" rx="28.6" ry="19.6"/>
		</g>
		<g>
			
				<rect x="418.9" y="653.8" transform="matrix(0.7722 0.6353 -0.6353 0.7722 539.774 -114.579)" fill="#98453D" width="21.7" height="83.4"/>
			
				<ellipse transform="matrix(0.7722 0.6353 -0.6353 0.7722 525.3429 -138.7572)" fill="#98453D" cx="456.2" cy="663.3" rx="28.6" ry="19.6"/>
		</g>
		<g>
			
				<rect x="254.4" y="627.9" transform="matrix(0.9363 -0.3511 0.3511 0.9363 -218.2099 135.7448)" fill="#98453D" width="21.7" height="83.4"/>
			
				<ellipse transform="matrix(0.9363 -0.3511 0.3511 0.9363 -205.4276 128.1155)" fill="#98453D" cx="250.6" cy="630.5" rx="28.6" ry="19.6"/>
		</g>
		<g>
			
				<rect x="149.7" y="757.4" transform="matrix(0.1641 -0.9864 0.9864 0.1641 -654.0509 826.2883)" fill="#98453D" width="21.7" height="83.4"/>
			
				<ellipse transform="matrix(0.1641 -0.9864 0.9864 0.1641 -681.6964 779.9704)" fill="#98453D" cx="119.4" cy="792.2" rx="28.6" ry="19.6"/>
		</g>
		<g>
			
				<rect x="209.5" y="912.8" transform="matrix(-0.7722 -0.6353 0.6353 -0.7722 -215.9786 1831.5107)" fill="#98453D" width="21.7" height="83.4"/>
			
				<ellipse transform="matrix(-0.7722 -0.6353 0.6353 -0.7722 -283.4212 1871.7649)" fill="#98453D" cx="193.8" cy="986.7" rx="28.6" ry="19.6"/>
		</g>
		<circle fill="#A35152" cx="328.9" cy="823.6" r="151.6"/>
		<circle fill="#943E34" cx="375.8" cy="848.9" r="21.5"/>
		
			<ellipse transform="matrix(-0.9363 0.3511 -0.3511 -0.9363 875.9529 1564.6746)" fill="#943E34" cx="296.1" cy="861.8" rx="18.3" ry="15.9"/>
		
			<ellipse transform="matrix(-0.9363 0.3511 -0.3511 -0.9363 942.093 1691.4745)" fill="#943E34" cx="317.7" cy="931.1" rx="14.1" ry="12.4"/>
		
			<ellipse transform="matrix(-0.9363 0.3511 -0.3511 -0.9363 1072.9506 1616.8973)" fill="#943E34" cx="389.9" cy="905.7" rx="20.2" ry="16.3"/>
		<circle fill="#943E34" cx="406.6" cy="766.9" r="23"/>
		<circle fill="#943E34" cx="453.6" cy="860.8" r="11"/>
		<circle fill="#943E34" cx="435.9" cy="826.4" r="23.4"/>
		<circle fill="#943E34" cx="322" cy="805.1" r="16.4"/>
		<circle fill="#943E34" cx="243.2" cy="817.2" r="17"/>
		<circle fill="#943E34" cx="256.2" cy="900.4" r="22.1"/>
		<circle fill="#943E34" cx="338.5" cy="887.8" r="12.2"/>
		
			<ellipse transform="matrix(-0.9363 0.3511 -0.3511 -0.9363 1015.9476 1703.425)" fill="#943E34" cx="353.5" cy="943.8" rx="15" ry="10.7"/>
		
			<ellipse transform="matrix(-0.9363 0.3511 -0.3511 -0.9363 1088.0574 1680.941)" fill="#943E34" cx="391.6" cy="939.1" rx="10.1" ry="5.5"/>
		
			<ellipse transform="matrix(-0.9363 0.3511 -0.3511 -0.9363 1143.0074 1582.8813)" fill="#943E34" cx="428" cy="895.1" rx="11.2" ry="7.4"/>
		
			<ellipse transform="matrix(-0.9363 0.3511 -0.3511 -0.9363 1104.8142 1532.1938)" fill="#943E34" cx="413.5" cy="866.3" rx="5.5" ry="6.1"/>
		
			<ellipse transform="matrix(-0.9363 0.3511 -0.3511 -0.9363 975.6358 1397.1747)" fill="#943E34" cx="361.2" cy="787" rx="8" ry="6"/>
		
			<ellipse transform="matrix(-0.9363 0.3511 -0.3511 -0.9363 959.3953 1329.2605)" fill="#943E34" cx="359.2" cy="751.6" rx="10.6" ry="10.8"/>
		
			<ellipse transform="matrix(-0.9363 0.3511 -0.3511 -0.9363 827.5454 1348.2836)" fill="#943E34" cx="291.5" cy="749.2" rx="16.9" ry="13.1"/>
		
			<ellipse transform="matrix(-0.9363 0.3511 -0.3511 -0.9363 814.1719 1436.6182)" fill="#943E34" cx="276.8" cy="792.1" rx="6.4" ry="9"/>
		
			<ellipse transform="matrix(-0.9363 0.3511 -0.3511 -0.9363 716.7158 1587.446)" fill="#943E34" cx="214.4" cy="858.7" rx="12" ry="15.6"/>
		
			<ellipse transform="matrix(-0.9363 0.3511 -0.3511 -0.9363 712.1841 1434.568)" fill="#943E34" cx="226" cy="781.9" rx="16.8" ry="7.6"/>
		
			<ellipse transform="matrix(-0.9363 0.3511 -0.3511 -0.9363 873.1066 1734.2703)" fill="#943E34" cx="279.3" cy="946.3" rx="11.5" ry="13.1"/>
		
			<ellipse transform="matrix(-0.9363 0.3511 -0.3511 -0.9363 737.4986 1660.266)" fill="#943E34" cx="218.2" cy="897" rx="5.6" ry="5.7"/>
		
			<ellipse transform="matrix(-0.9363 0.3511 -0.3511 -0.9363 780.0013 1566.3163)" fill="#943E34" cx="248" cy="853.9" rx="5.9" ry="5.5"/>
		
			<ellipse transform="matrix(-0.9363 0.3511 -0.3511 -0.9363 834.5724 1510.3279)" fill="#943E34" cx="280.4" cy="830.8" rx="10.3" ry="8.8"/>
		
			<ellipse transform="matrix(-0.9363 0.3511 -0.3511 -0.9363 933.8967 1525.2953)" fill="#943E34" cx="328.7" cy="847.3" rx="10.6" ry="7.7"/>
		
			<ellipse transform="matrix(-0.9363 0.3511 -0.3511 -0.9363 978.9744 1250.2795)" fill="#943E34" cx="376.1" cy="713.9" rx="15" ry="9.8"/>
		
			<ellipse transform="matrix(-0.9363 0.3511 -0.3511 -0.9363 859.1904 1287.0199)" fill="#943E34" cx="312.9" cy="721.4" rx="7.4" ry="11"/>
		
			<ellipse transform="matrix(-0.9363 0.3511 -0.3511 -0.9363 894.8795 1247.0255)" fill="#943E34" cx="334.4" cy="704.6" rx="11.9" ry="8.2"/>
		
			<ellipse transform="matrix(-0.9363 0.3511 -0.3511 -0.9363 781.1373 1288.6006)" fill="#943E34" cx="273.7" cy="715.1" rx="12.2" ry="8.6"/>
		
			<ellipse transform="matrix(-0.9363 0.3511 -0.3511 -0.9363 713.9026 1356.4335)" fill="#943E34" cx="234" cy="742.9" rx="12.3" ry="5.9"/>
		<circle fill="#943E34" cx="253.7" cy="759.8" r="7.4"/>
		<circle fill="#943E34" cx="313.7" cy="777.2" r="9.3"/>
		<circle fill="#943E34" cx="325.7" cy="755.4" r="7.4"/>
		<circle fill="#943E34" cx="415.1" cy="724" r="6.9"/>
		<circle fill="#943E34" cx="447.5" cy="779" r="10.4"/>
		<circle fill="#943E34" cx="384.4" cy="804.2" r="8.9"/>
		<circle fill="#943E34" cx="298.7" cy="900.8" r="11.3"/>
		<circle fill="#943E34" cx="196.3" cy="822.3" r="6.6"/>
		<circle fill="#943E34" cx="194.7" cy="799.3" r="4.8"/>
		<circle fill="#943E34" cx="210.9" cy="811.1" r="7.1"/>
		<circle fill="#943E34" cx="209" cy="758.6" r="7"/>
		<circle fill="#943E34" cx="240" cy="711.9" r="6.2"/>
		<circle fill="#943E34" cx="298.3" cy="690.1" r="6.2"/>
		<circle fill="#943E34" cx="353.9" cy="684.8" r="6.7"/>
		
			<ellipse transform="matrix(0.9363 -0.3511 0.3511 0.9363 -317.1446 171.7588)" fill="#943E34" cx="315.1" cy="960.4" rx="8.4" ry="6.9"/>
	</g>
	<g>
		<g>
			
				<rect x="889.4" y="127.9" transform="matrix(0.9363 -0.3511 0.3511 0.9363 -2.2379 326.8603)" fill="#B02024" width="21.7" height="83.4"/>
			
				<ellipse transform="matrix(0.9363 -0.3511 0.3511 0.9363 10.5444 319.231)" fill="#B02024" cx="885.6" cy="130.5" rx="28.6" ry="19.6"/>
		</g>
		<g>
			
				<rect x="830.5" y="199.4" transform="matrix(0.6353 -0.7722 0.7722 0.6353 130.8512 729.1229)" fill="#951B1E" width="13.8" height="53.3"/>
			
				<ellipse transform="matrix(0.6353 -0.7722 0.7722 0.6353 136.4208 707.0609)" fill="#951B1E" cx="816.9" cy="209.1" rx="18.2" ry="12.5"/>
		</g>
		<g>
			
				<rect x="806.1" y="355" transform="matrix(-0.3511 -0.9363 0.9363 -0.3511 741.1063 1276.8629)" fill="#951B1E" width="13.8" height="53.3"/>
			
				<ellipse transform="matrix(-0.3511 -0.9363 0.9363 -0.3511 698.6398 1266.1421)" fill="#951B1E" cx="788.1" cy="391" rx="18.2" ry="12.5"/>
		</g>
		<g>
			
				<rect x="928.6" y="454" transform="matrix(-0.9864 -0.1641 0.1641 -0.9864 1779.5261 1108.2578)" fill="#951B1E" width="13.8" height="53.3"/>
			
				<ellipse transform="matrix(-0.9864 -0.1641 0.1641 -0.9864 1766.5266 1159.7501)" fill="#951B1E" cx="931.2" cy="506.9" rx="18.2" ry="12.5"/>
		</g>
		<g>
			
				<rect x="1075.6" y="397.3" transform="matrix(-0.6353 0.7722 -0.7722 -0.6353 2097.7485 -142.5981)" fill="#951B1E" width="13.8" height="53.3"/>
			
				<ellipse transform="matrix(-0.6353 0.7722 -0.7722 -0.6353 2144.4695 -130.8033)" fill="#951B1E" cx="1103.1" cy="440.9" rx="18.2" ry="12.5"/>
		</g>
		<g>
			
				<rect x="1100.1" y="241.7" transform="matrix(0.3511 0.9363 -0.9363 0.3511 969.6227 -862.3807)" fill="#951B1E" width="13.8" height="53.3"/>
			
				<ellipse transform="matrix(0.3511 0.9363 -0.9363 0.3511 977.0524 -891.811)" fill="#951B1E" cx="1131.9" cy="259" rx="18.2" ry="12.5"/>
		</g>
		<g>
			
				<rect x="977.5" y="142.7" transform="matrix(0.9864 0.1641 -0.1641 0.9864 41.1449 -159.2649)" fill="#951B1E" width="13.8" height="53.3"/>
			
				<ellipse transform="matrix(0.9864 0.1641 -0.1641 0.9864 36.8908 -160.3389)" fill="#951B1E" cx="988.8" cy="143.1" rx="18.2" ry="12.5"/>
		</g>
		<g>
			
				<rect x="784.7" y="257.4" transform="matrix(0.1641 -0.9864 0.9864 0.1641 369.9587 1034.7349)" fill="#B02024" width="21.7" height="83.4"/>
			
				<ellipse transform="matrix(0.1641 -0.9864 0.9864 0.1641 342.3132 988.417)" fill="#B02024" cx="754.4" cy="292.2" rx="28.6" ry="19.6"/>
		</g>
		<g>
			
				<rect x="844.5" y="412.8" transform="matrix(-0.7722 -0.6353 0.6353 -0.7722 1227.059 1348.8418)" fill="#B02024" width="21.7" height="83.4"/>
			
				<ellipse transform="matrix(-0.7722 -0.6353 0.6353 -0.7722 1159.6163 1389.0959)" fill="#B02024" cx="828.8" cy="486.7" rx="28.6" ry="19.6"/>
		</g>
		<g>
			
				<rect x="1009" y="438.7" transform="matrix(-0.9363 0.3511 -0.3511 -0.9363 2143.3047 572.1754)" fill="#B02024" width="21.7" height="83.4"/>
			
				<ellipse transform="matrix(-0.9363 0.3511 -0.3511 -0.9363 2185.3813 642.6714)" fill="#B02024" cx="1034.4" cy="519.5" rx="28.6" ry="19.6"/>
		</g>
		<g>
			
				<rect x="1113.6" y="309.2" transform="matrix(-0.1641 0.9864 -0.9864 -0.1641 1655.1791 -700.7021)" fill="#B02024" width="21.7" height="83.4"/>
			
				<ellipse transform="matrix(-0.1641 0.9864 -0.9864 -0.1641 1709.8392 -733.3268)" fill="#B02024" cx="1165.6" cy="357.8" rx="28.6" ry="19.6"/>
		</g>
		<g>
			
				<rect x="1053.9" y="153.8" transform="matrix(0.7722 0.6353 -0.6353 0.7722 366.7365 -631.91)" fill="#B02024" width="21.7" height="83.4"/>
			
				<ellipse transform="matrix(0.7722 0.6353 -0.6353 0.7722 352.3054 -656.0883)" fill="#B02024" cx="1091.2" cy="163.3" rx="28.6" ry="19.6"/>
		</g>
		<circle fill="#EC2227" cx="956.1" cy="326.4" r="151.6"/>
		<circle fill="#A31E22" cx="909.2" cy="301.1" r="21.5"/>
		
			<ellipse transform="matrix(0.9363 -0.3511 0.3511 0.9363 -38.2508 365.54)" fill="#A31E22" cx="988.9" cy="288.2" rx="18.3" ry="15.9"/>
		
			<ellipse transform="matrix(0.9363 -0.3511 0.3511 0.9363 -15.2595 353.5475)" fill="#A31E22" cx="967.3" cy="218.9" rx="14.1" ry="12.4"/>
		
			<ellipse transform="matrix(0.9363 -0.3511 0.3511 0.9363 -28.7818 329.8206)" fill="#A31E22" cx="895.1" cy="244.3" rx="20.2" ry="16.3"/>
		<circle fill="#A31E22" cx="878.4" cy="383.1" r="23"/>
		<circle fill="#A31E22" cx="831.4" cy="289.2" r="11"/>
		<circle fill="#A31E22" cx="849.1" cy="323.6" r="23.4"/>
		<circle fill="#A31E22" cx="963" cy="344.9" r="16.4"/>
		<circle fill="#A31E22" cx="1041.8" cy="332.8" r="17"/>
		<circle fill="#A31E22" cx="1028.8" cy="249.6" r="22.1"/>
		<circle fill="#A31E22" cx="946.5" cy="262.2" r="12.2"/>
		
			<ellipse transform="matrix(0.9363 -0.3511 0.3511 0.9363 -13.0927 340.1563)" fill="#A31E22" cx="931.5" cy="206.2" rx="15" ry="10.7"/>
		
			<ellipse transform="matrix(0.9363 -0.3511 0.3511 0.9363 -17.1695 327.0814)" fill="#A31E22" cx="893.4" cy="210.9" rx="10.1" ry="5.5"/>
		
			<ellipse transform="matrix(0.9363 -0.3511 0.3511 0.9363 -34.9496 317.1179)" fill="#A31E22" cx="857" cy="254.9" rx="11.2" ry="7.4"/>
		
			<ellipse transform="matrix(0.9363 -0.3511 0.3511 0.9363 -44.1402 324.0431)" fill="#A31E22" cx="871.5" cy="283.7" rx="5.5" ry="6.1"/>
		<ellipse transform="matrix(0.9363 -0.3511 0.3511 0.9363 -68.6218 347.4656)" fill="#A31E22" cx="923.8" cy="363" rx="8" ry="6"/>
		
			<ellipse transform="matrix(0.9363 -0.3511 0.3511 0.9363 -80.9359 350.4103)" fill="#A31E22" cx="925.8" cy="398.4" rx="10.6" ry="10.8"/>
		
			<ellipse transform="matrix(0.9363 -0.3511 0.3511 0.9363 -77.4866 374.3172)" fill="#A31E22" cx="993.5" cy="400.8" rx="16.9" ry="13.1"/>
		
			<ellipse transform="matrix(0.9363 -0.3511 0.3511 0.9363 -61.4699 376.7421)" fill="#A31E22" cx="1008.2" cy="357.9" rx="6.4" ry="9"/>
		
			<ellipse transform="matrix(0.9363 -0.3511 0.3511 0.9363 -34.1219 394.4127)" fill="#A31E22" cx="1070.6" cy="291.3" rx="12" ry="15.6"/>
		
			<ellipse transform="matrix(0.9363 -0.3511 0.3511 0.9363 -61.8416 395.2344)" fill="#A31E22" cx="1059" cy="368.1" rx="16.8" ry="7.6"/>
		
			<ellipse transform="matrix(0.9363 -0.3511 0.3511 0.9363 -7.4999 366.0561)" fill="#A31E22" cx="1005.7" cy="203.7" rx="11.5" ry="13.1"/>
		
			<ellipse transform="matrix(0.9363 -0.3511 0.3511 0.9363 -20.9183 390.6444)" fill="#A31E22" cx="1066.8" cy="253" rx="5.6" ry="5.7"/>
		
			<ellipse transform="matrix(0.9363 -0.3511 0.3511 0.9363 -37.9531 382.9378)" fill="#A31E22" cx="1037" cy="296.1" rx="5.9" ry="5.5"/>
		
			<ellipse transform="matrix(0.9363 -0.3511 0.3511 0.9363 -48.1049 373.0431)" fill="#A31E22" cx="1004.6" cy="319.2" rx="10.3" ry="8.8"/>
		
			<ellipse transform="matrix(0.9363 -0.3511 0.3511 0.9363 -45.391 355.0337)" fill="#A31E22" cx="956.3" cy="302.7" rx="10.6" ry="7.7"/>
		
			<ellipse transform="matrix(0.9363 -0.3511 0.3511 0.9363 -95.2567 346.8602)" fill="#A31E22" cx="908.9" cy="436.1" rx="15" ry="9.8"/>
		
			<ellipse transform="matrix(0.9363 -0.3511 0.3511 0.9363 -88.5949 368.5793)" fill="#A31E22" cx="972.1" cy="428.6" rx="7.4" ry="11"/>
		
			<ellipse transform="matrix(0.9363 -0.3511 0.3511 0.9363 -95.8467 362.1082)" fill="#A31E22" cx="950.6" cy="445.4" rx="11.9" ry="8.2"/>
		
			<ellipse transform="matrix(0.9363 -0.3511 0.3511 0.9363 -88.3083 382.7318)" fill="#A31E22" cx="1011.3" cy="434.9" rx="12.2" ry="8.6"/>
		
			<ellipse transform="matrix(0.9363 -0.3511 0.3511 0.9363 -76.0089 394.9228)" fill="#A31E22" cx="1051" cy="407.1" rx="12.3" ry="5.9"/>
		<circle fill="#A31E22" cx="1031.3" cy="390.2" r="7.4"/>
		<circle fill="#A31E22" cx="971.3" cy="372.8" r="9.3"/>
		<circle fill="#A31E22" cx="959.3" cy="394.6" r="7.4"/>
		<circle fill="#A31E22" cx="869.9" cy="426" r="6.9"/>
		<circle fill="#A31E22" cx="837.5" cy="371" r="10.4"/>
		<circle fill="#A31E22" cx="900.6" cy="345.8" r="8.9"/>
		<circle fill="#A31E22" cx="986.3" cy="249.2" r="11.3"/>
		<circle fill="#A31E22" cx="1088.7" cy="327.7" r="6.6"/>
		<circle fill="#A31E22" cx="1090.3" cy="350.7" r="4.8"/>
		<circle fill="#A31E22" cx="1074.1" cy="338.9" r="7.1"/>
		<circle fill="#A31E22" cx="1076" cy="391.4" r="7"/>
		<circle fill="#A31E22" cx="1045" cy="438.1" r="6.2"/>
		<circle fill="#A31E22" cx="986.7" cy="459.9" r="6.2"/>
		<circle fill="#A31E22" cx="931.1" cy="465.2" r="6.7"/>
		
			<ellipse transform="matrix(-0.9363 0.3511 -0.3511 -0.9363 1944.6827 26.537)" fill="#A31E22" cx="969.9" cy="189.6" rx="8.4" ry="6.9"/>
	</g>
	<g>
		<g>
			
				<rect x="1739.6" y="223.5" transform="matrix(0.3511 0.9363 -0.9363 0.3511 1384.1785 -1466.8647)" fill="#38B04A" width="21.7" height="83.4"/>
			
				<ellipse transform="matrix(0.3511 0.9363 -0.9363 0.3511 1395.8116 -1512.9454)" fill="#38B04A" cx="1789.5" cy="250.6" rx="28.6" ry="19.6"/>
		</g>
		<g>
			
				<rect x="1687.1" y="175.8" transform="matrix(0.7722 0.6353 -0.6353 0.7722 514.4752 -1030.156)" fill="#2E9546" width="13.8" height="53.3"/>
			
				<ellipse transform="matrix(0.7722 0.6353 -0.6353 0.7722 505.2584 -1045.598)" fill="#2E9546" cx="1710.9" cy="181.9" rx="18.2" ry="12.5"/>
		</g>
		<g>
			
				<rect x="1531.5" y="151.4" transform="matrix(0.9363 -0.3511 0.3511 0.9363 35.4379 551.4464)" fill="#2E9546" width="13.8" height="53.3"/>
			
				<ellipse transform="matrix(0.9363 -0.3511 0.3511 0.9363 43.6016 546.5737)" fill="#2E9546" cx="1529" cy="153.1" rx="18.2" ry="12.5"/>
		</g>
		<g>
			
				<rect x="1432.5" y="273.9" transform="matrix(0.1641 -0.9864 0.9864 0.1641 906.6918 1671.0846)" fill="#2E9546" width="13.8" height="53.3"/>
			
				<ellipse transform="matrix(0.1641 -0.9864 0.9864 0.1641 889.0355 1641.5028)" fill="#2E9546" cx="1413.1" cy="296.2" rx="18.2" ry="12.5"/>
		</g>
		<g>
			
				<rect x="1489.1" y="420.9" transform="matrix(-0.7722 -0.6353 0.6353 -0.7722 2366.925 1743.6311)" fill="#2E9546" width="13.8" height="53.3"/>
			
				<ellipse transform="matrix(-0.7722 -0.6353 0.6353 -0.7722 2323.8516 1769.3402)" fill="#2E9546" cx="1479.1" cy="468.1" rx="18.2" ry="12.5"/>
		</g>
		<g>
			
				<rect x="1644.7" y="445.4" transform="matrix(-0.9363 0.3511 -0.3511 -0.9363 3363.833 334.0715)" fill="#2E9546" width="13.8" height="53.3"/>
			
				<ellipse transform="matrix(-0.9363 0.3511 -0.3511 -0.9363 3390.7063 379.0953)" fill="#2E9546" cx="1661" cy="496.9" rx="18.2" ry="12.5"/>
		</g>
		<g>
			
				<rect x="1743.7" y="322.8" transform="matrix(-0.1641 0.9864 -0.9864 -0.1641 2382.637 -1320.0775)" fill="#2E9546" width="13.8" height="53.3"/>
			
				<ellipse transform="matrix(-0.1641 0.9864 -0.9864 -0.1641 2417.5471 -1340.9141)" fill="#2E9546" cx="1776.9" cy="353.8" rx="18.2" ry="12.5"/>
		</g>
		<g>
			
				<rect x="1610.1" y="118.8" transform="matrix(0.9864 0.1641 -0.1641 0.9864 48.3222 -263.8378)" fill="#38B04A" width="21.7" height="83.4"/>
			
				<ellipse transform="matrix(0.9864 0.1641 -0.1641 0.9864 41.6614 -265.5193)" fill="#38B04A" cx="1627.8" cy="119.4" rx="28.6" ry="19.6"/>
		</g>
		<g>
			
				<rect x="1454.7" y="178.6" transform="matrix(0.6353 -0.7722 0.7722 0.6353 364.2815 1212.0597)" fill="#38B04A" width="21.7" height="83.4"/>
			
				<ellipse transform="matrix(0.6353 -0.7722 0.7722 0.6353 373.0021 1177.516)" fill="#38B04A" cx="1433.3" cy="193.8" rx="28.6" ry="19.6"/>
		</g>
		<g>
			
				<rect x="1428.8" y="343.1" transform="matrix(-0.3511 -0.9363 0.9363 -0.3511 1584.7545 1867.8292)" fill="#38B04A" width="21.7" height="83.4"/>
			
				<ellipse transform="matrix(-0.3511 -0.9363 0.9363 -0.3511 1518.2625 1851.0431)" fill="#38B04A" cx="1400.5" cy="399.4" rx="28.6" ry="19.6"/>
		</g>
		<g>
			
				<rect x="1558.2" y="447.8" transform="matrix(-0.9864 -0.1641 0.1641 -0.9864 3036.54 1229.8052)" fill="#38B04A" width="21.7" height="83.4"/>
			
				<ellipse transform="matrix(-0.9864 -0.1641 0.1641 -0.9864 3016.186 1310.4293)" fill="#38B04A" cx="1562.2" cy="530.6" rx="28.6" ry="19.6"/>
		</g>
		<g>
			
				<rect x="1713.6" y="388" transform="matrix(-0.6353 0.7722 -0.7722 -0.6353 3151.9231 -628.9916)" fill="#38B04A" width="21.7" height="83.4"/>
			
				<ellipse transform="matrix(-0.6353 0.7722 -0.7722 -0.6353 3225.0762 -610.5238)" fill="#38B04A" cx="1756.7" cy="456.2" rx="28.6" ry="19.6"/>
		</g>
		<circle fill="#6BBD45" cx="1593.6" cy="321.1" r="151.6"/>
		<circle fill="#32A448" cx="1618.9" cy="274.2" r="21.5"/>
		
			<ellipse transform="matrix(0.3511 0.9363 -0.9363 0.3511 1390.1989 -1298.2411)" fill="#32A448" cx="1631.8" cy="353.9" rx="18.3" ry="15.9"/>
		
			<ellipse transform="matrix(0.3511 0.9363 -0.9363 0.3511 1415.0294 -1377.2192)" fill="#32A448" cx="1701.1" cy="332.3" rx="14.1" ry="12.4"/>
		
			<ellipse transform="matrix(0.3511 0.9363 -0.9363 0.3511 1330.9368 -1400.2571)" fill="#32A448" cx="1675.7" cy="260.1" rx="20.2" ry="16.3"/>
		<circle fill="#32A448" cx="1536.9" cy="243.4" r="23"/>
		<circle fill="#32A448" cx="1630.8" cy="196.4" r="11"/>
		<circle fill="#32A448" cx="1596.4" cy="214.1" r="23.4"/>
		<circle fill="#32A448" cx="1575.1" cy="328" r="16.4"/>
		<circle fill="#32A448" cx="1587.2" cy="406.8" r="17"/>
		<circle fill="#32A448" cx="1670.4" cy="393.8" r="22.1"/>
		<circle fill="#32A448" cx="1657.8" cy="311.5" r="12.2"/>
		
			<ellipse transform="matrix(0.3511 0.9363 -0.9363 0.3511 1389.6896 -1412.3428)" fill="#32A448" cx="1713.8" cy="296.5" rx="15" ry="10.7"/>
		
			<ellipse transform="matrix(0.3511 0.9363 -0.9363 0.3511 1350.9685 -1432.6565)" fill="#32A448" cx="1709.1" cy="258.4" rx="10.1" ry="5.5"/>
		
			<ellipse transform="matrix(0.3511 0.9363 -0.9363 0.3511 1288.3354 -1415.01)" fill="#32A448" cx="1665.1" cy="222" rx="11.2" ry="7.4"/>
		
			<ellipse transform="matrix(0.3511 0.9363 -0.9363 0.3511 1283.2211 -1378.6276)" fill="#32A448" cx="1636.3" cy="236.5" rx="5.5" ry="6.1"/>
		
			<ellipse transform="matrix(0.3511 0.9363 -0.9363 0.3511 1280.8301 -1270.4808)" fill="#32A448" cx="1557" cy="288.8" rx="8" ry="6"/>
		
			<ellipse transform="matrix(0.3511 0.9363 -0.9363 0.3511 1259.678 -1236.0328)" fill="#32A448" cx="1521.6" cy="290.8" rx="10.6" ry="10.8"/>
		
			<ellipse transform="matrix(0.3511 0.9363 -0.9363 0.3511 1321.4364 -1189.8483)" fill="#32A448" cx="1519.2" cy="358.5" rx="16.9" ry="13.1"/>
		
			<ellipse transform="matrix(0.3511 0.9363 -0.9363 0.3511 1363.0696 -1220.533)" fill="#32A448" cx="1562.1" cy="373.2" rx="6.4" ry="9"/>
		
			<ellipse transform="matrix(0.3511 0.9363 -0.9363 0.3511 1464.7024 -1242.3801)" fill="#32A448" cx="1628.7" cy="435.6" rx="12" ry="15.6"/>
		
			<ellipse transform="matrix(0.3511 0.9363 -0.9363 0.3511 1403.9783 -1177.946)" fill="#32A448" cx="1551.9" cy="424" rx="16.8" ry="7.6"/>
		
			<ellipse transform="matrix(0.3511 0.9363 -0.9363 0.3511 1460.7864 -1366.4983)" fill="#32A448" cx="1716.3" cy="370.7" rx="11.5" ry="13.1"/>
		
			<ellipse transform="matrix(0.3511 0.9363 -0.9363 0.3511 1486.0033 -1280.6956)" fill="#32A448" cx="1667" cy="431.8" rx="5.6" ry="5.7"/>
		
			<ellipse transform="matrix(0.3511 0.9363 -0.9363 0.3511 1430.1478 -1259.6362)" fill="#32A448" cx="1623.9" cy="402" rx="5.9" ry="5.5"/>
		
			<ellipse transform="matrix(0.3511 0.9363 -0.9363 0.3511 1384.8914 -1259.0562)" fill="#32A448" cx="1600.8" cy="369.6" rx="10.3" ry="8.8"/>
		
			<ellipse transform="matrix(0.3511 0.9363 -0.9363 0.3511 1350.3607 -1305.8403)" fill="#32A448" cx="1617.3" cy="321.3" rx="10.6" ry="7.7"/>
		
			<ellipse transform="matrix(0.3511 0.9363 -0.9363 0.3511 1219.3334 -1211.7173)" fill="#32A448" cx="1483.9" cy="273.9" rx="15" ry="9.8"/>
		
			<ellipse transform="matrix(0.3511 0.9363 -0.9363 0.3511 1283.4053 -1177.7242)" fill="#32A448" cx="1491.4" cy="337.1" rx="7.4" ry="11"/>
		
			<ellipse transform="matrix(0.3511 0.9363 -0.9363 0.3511 1252.4249 -1175.9619)" fill="#32A448" cx="1474.6" cy="315.6" rx="11.9" ry="8.2"/>
		
			<ellipse transform="matrix(0.3511 0.9363 -0.9363 0.3511 1316.0026 -1146.421)" fill="#32A448" cx="1485.1" cy="376.3" rx="12.2" ry="8.6"/>
		
			<ellipse transform="matrix(0.3511 0.9363 -0.9363 0.3511 1371.2911 -1146.6659)" fill="#32A448" cx="1512.9" cy="416" rx="12.3" ry="5.9"/>
		<circle fill="#32A448" cx="1529.8" cy="396.3" r="7.4"/>
		<circle fill="#32A448" cx="1547.2" cy="336.3" r="9.3"/>
		<circle fill="#32A448" cx="1525.4" cy="324.3" r="7.4"/>
		<circle fill="#32A448" cx="1494" cy="234.9" r="6.9"/>
		<circle fill="#32A448" cx="1549" cy="202.5" r="10.4"/>
		<circle fill="#32A448" cx="1574.2" cy="265.6" r="8.9"/>
		<circle fill="#32A448" cx="1670.8" cy="351.3" r="11.3"/>
		<circle fill="#32A448" cx="1592.3" cy="453.7" r="6.6"/>
		<circle fill="#32A448" cx="1569.3" cy="455.3" r="4.8"/>
		<circle fill="#32A448" cx="1581.1" cy="439.1" r="7.1"/>
		<circle fill="#32A448" cx="1528.6" cy="441" r="7"/>
		<circle fill="#32A448" cx="1481.9" cy="410" r="6.2"/>
		<circle fill="#32A448" cx="1460.1" cy="351.7" r="6.2"/>
		<circle fill="#32A448" cx="1454.8" cy="296.1" r="6.7"/>
		
			<ellipse transform="matrix(-0.3511 -0.9363 0.9363 -0.3511 2024.359 2072.7976)" fill="#32A448" cx="1730.4" cy="334.9" rx="8.4" ry="6.9"/>
	</g>
	<g>
		<g>
			
				<rect x="381.8" y="131.1" transform="matrix(0.9104 0.4138 -0.4138 0.9104 106.7251 -146.9802)" fill="#473D98" width="21.7" height="83.4"/>
			
				<ellipse transform="matrix(0.9104 0.4138 -0.4138 0.9104 92.5561 -157.5294)" fill="#473D98" cx="409.9" cy="134.9" rx="28.6" ry="19.6"/>
		</g>
		<g>
			
				<rect x="301.4" y="141.7" transform="matrix(0.9953 -9.678963e-002 9.678963e-002 0.9953 -14.8471 30.6351)" fill="#3A2F8C" width="13.8" height="53.3"/>
			
				<ellipse transform="matrix(0.9953 -9.678963e-002 9.678963e-002 0.9953 -12.2924 30.261)" fill="#3A2F8C" cx="305.8" cy="141.8" rx="18.2" ry="12.5"/>
		</g>
		<g>
			
				<rect x="174.1" y="234.5" transform="matrix(0.4138 -0.9104 0.9104 0.4138 -131.5885 317.8338)" fill="#3A2F8C" width="13.8" height="53.3"/>
			
				<ellipse transform="matrix(0.4138 -0.9104 0.9104 0.4138 -135.7688 289.2892)" fill="#3A2F8C" cx="156.8" cy="250.1" rx="18.2" ry="12.5"/>
		</g>
		<g>
			
				<rect x="190.8" y="391.1" transform="matrix(-0.5815 -0.8136 0.8136 -0.5815 -27.2593 821.4696)" fill="#3A2F8C" width="13.8" height="53.3"/>
			
				<ellipse transform="matrix(-0.5815 -0.8136 0.8136 -0.5815 -74.1454 828.3359)" fill="#3A2F8C" cx="176" cy="433.2" rx="18.2" ry="12.5"/>
		</g>
		<g>
			
				<rect x="334.7" y="455" transform="matrix(-0.9953 9.678962e-002 -9.678962e-002 -0.9953 728.3221 927.9647)" fill="#3A2F8C" width="13.8" height="53.3"/>
			
				<ellipse transform="matrix(-0.9953 9.678962e-002 -9.678962e-002 -0.9953 736.0346 980.6292)" fill="#3A2F8C" cx="344.2" cy="508.2" rx="18.2" ry="12.5"/>
		</g>
		<g>
			
				<rect x="462.1" y="362.3" transform="matrix(-0.4138 0.9104 -0.9104 -0.4138 1017.1063 122.8952)" fill="#3A2F8C" width="13.8" height="53.3"/>
			
				<ellipse transform="matrix(-0.4138 0.9104 -0.9104 -0.4138 1061.4377 116.403)" fill="#3A2F8C" cx="493.2" cy="399.9" rx="18.2" ry="12.5"/>
		</g>
		<g>
			
				<rect x="445.4" y="205.6" transform="matrix(0.5815 0.8136 -0.8136 0.5815 378.2664 -270.7985)" fill="#3A2F8C" width="13.8" height="53.3"/>
			
				<ellipse transform="matrix(0.5815 0.8136 -0.8136 0.5815 374.7341 -294.9183)" fill="#3A2F8C" cx="474" cy="216.8" rx="18.2" ry="12.5"/>
		</g>
		<g>
			
				<rect x="216.2" y="148.6" transform="matrix(0.8136 -0.5815 0.5815 0.8136 -68.3665 167.508)" fill="#473D98" width="21.7" height="83.4"/>
			
				<ellipse transform="matrix(0.8136 -0.5815 0.5815 0.8136 -53.1535 147.0747)" fill="#473D98" cx="202.8" cy="156.4" rx="28.6" ry="19.6"/>
		</g>
		<g>
			
				<rect x="148.6" y="300.8" transform="matrix(-9.678963e-002 -0.9953 0.9953 -9.678963e-002 -166.059 534.3505)" fill="#473D98" width="21.7" height="83.4"/>
			
				<ellipse transform="matrix(-9.678963e-002 -0.9953 0.9953 -9.678963e-002 -215.6196 497.4516)" fill="#473D98" cx="117.9" cy="346.6" rx="28.6" ry="19.6"/>
		</g>
		<g>
			
				<rect x="246.6" y="435.4" transform="matrix(-0.9104 -0.4138 0.4138 -0.9104 294.2393 1018.0471)" fill="#473D98" width="21.7" height="83.4"/>
			
				<ellipse transform="matrix(-0.9104 -0.4138 0.4138 -0.9104 245.5415 1083.4553)" fill="#473D98" cx="240.1" cy="515.1" rx="28.6" ry="19.6"/>
		</g>
		<g>
			
				<rect x="412.1" y="417.9" transform="matrix(-0.8136 0.5815 -0.5815 -0.8136 1034.3339 587.6298)" fill="#473D98" width="21.7" height="83.4"/>
			
				<ellipse transform="matrix(-0.8136 0.5815 -0.5815 -0.8136 1098.0634 635.0778)" fill="#473D98" cx="447.2" cy="493.6" rx="28.6" ry="19.6"/>
		</g>
		<g>
			
				<rect x="479.7" y="265.8" transform="matrix(9.678967e-002 0.9953 -0.9953 9.678967e-002 749.1272 -210.5552)" fill="#473D98" width="21.7" height="83.4"/>
			
				<ellipse transform="matrix(9.678967e-002 0.9953 -0.9953 9.678967e-002 782.6119 -255.5299)" fill="#473D98" cx="532.1" cy="303.4" rx="28.6" ry="19.6"/>
		</g>
		<circle fill="#5152A3" cx="321.2" cy="323.3" r="151.6"/>
		<circle fill="#413494" cx="306" cy="272.2" r="21.5"/>
		
			<ellipse transform="matrix(0.9104 0.4138 -0.4138 0.9104 165.4855 -125.063)" fill="#413494" cx="371.4" cy="319.4" rx="18.3" ry="15.9"/>
		
			<ellipse transform="matrix(0.9104 0.4138 -0.4138 0.9104 141.8969 -144.8232)" fill="#413494" cx="405.2" cy="255.1" rx="14.1" ry="12.4"/>
		
			<ellipse transform="matrix(0.9104 0.4138 -0.4138 0.9104 122.0247 -119.2233)" fill="#413494" cx="336.2" cy="222" rx="20.2" ry="16.3"/>
		<circle fill="#413494" cx="226.2" cy="308.4" r="23"/>
		<circle fill="#413494" cx="259.4" cy="208.7" r="11"/>
		<circle fill="#413494" cx="247.6" cy="245.6" r="23.4"/>
		<circle fill="#413494" cx="313.1" cy="341.2" r="16.4"/>
		<circle fill="#413494" cx="377.3" cy="388.4" r="17"/>
		<circle fill="#413494" cx="426.9" cy="320.4" r="22.1"/>
		<circle fill="#413494" cx="359.9" cy="271" r="12.2"/>
		
			<ellipse transform="matrix(0.9104 0.4138 -0.4138 0.9104 126.2315 -141.1176)" fill="#413494" cx="388.8" cy="220.8" rx="15" ry="10.7"/>
		
			<ellipse transform="matrix(0.9104 0.4138 -0.4138 0.9104 113.7483 -130.7105)" fill="#413494" cx="358.6" cy="197.2" rx="10.1" ry="5.5"/>
		
			<ellipse transform="matrix(0.9104 0.4138 -0.4138 0.9104 110.8992 -106.6928)" fill="#413494" cx="301.7" cy="202.6" rx="11.2" ry="7.4"/>
		
			<ellipse transform="matrix(0.9104 0.4138 -0.4138 0.9104 122.6651 -99.7616)" fill="#413494" cx="291.6" cy="233.2" rx="5.5" ry="6.1"/>
		
			<ellipse transform="matrix(0.9104 0.4138 -0.4138 0.9104 159.4618 -83.5581)" fill="#413494" cx="272.6" cy="326.3" rx="8" ry="6"/>
		
			<ellipse transform="matrix(0.9104 0.4138 -0.4138 0.9104 168.2823 -71.3948)" fill="#413494" cx="248.9" cy="352.7" rx="10.6" ry="10.8"/>
		
			<ellipse transform="matrix(0.9104 0.4138 -0.4138 0.9104 192.9261 -86.033)" fill="#413494" cx="295" cy="402.3" rx="16.9" ry="13.1"/>
		
			<ellipse transform="matrix(0.9104 0.4138 -0.4138 0.9104 188.3111 -104.694)" fill="#413494" cx="335.8" cy="382.3" rx="6.4" ry="9"/>
		
			<ellipse transform="matrix(0.9104 0.4138 -0.4138 0.9104 195.2649 -142.7013)" fill="#413494" cx="427" cy="379.3" rx="12" ry="15.6"/>
		
			<ellipse transform="matrix(0.9104 0.4138 -0.4138 0.9104 208.7538 -112.6842)" fill="#413494" cx="364.5" cy="425.5" rx="16.8" ry="7.6"/>
		
			<ellipse transform="matrix(0.9104 0.4138 -0.4138 0.9104 152.0867 -159.0109)" fill="#413494" cx="443.1" cy="271.5" rx="11.5" ry="13.1"/>
		
			<ellipse transform="matrix(0.9104 0.4138 -0.4138 0.9104 185.1375 -155.4658)" fill="#413494" cx="451.4" cy="349.6" rx="5.6" ry="5.7"/>
		
			<ellipse transform="matrix(0.9104 0.4138 -0.4138 0.9104 184.4243 -133.29)" fill="#413494" cx="399.9" cy="359" rx="5.9" ry="5.5"/>
		
			<ellipse transform="matrix(0.9104 0.4138 -0.4138 0.9104 178.1864 -117.6668)" fill="#413494" cx="360.7" cy="352.4" rx="10.3" ry="8.8"/>
		
			<ellipse transform="matrix(0.9104 0.4138 -0.4138 0.9104 157.2095 -112.4637)" fill="#413494" cx="338.2" cy="306.6" rx="10.6" ry="7.7"/>
		
			<ellipse transform="matrix(0.9104 0.4138 -0.4138 0.9104 170.8936 -54.0822)" fill="#413494" cx="210.3" cy="367.4" rx="15" ry="9.8"/>
		
			<ellipse transform="matrix(0.9104 0.4138 -0.4138 0.9104 191.6799 -71.2488)" fill="#413494" cx="260.3" cy="406.8" rx="7.4" ry="11"/>
		
			<ellipse transform="matrix(0.9104 0.4138 -0.4138 0.9104 187.8785 -60.3598)" fill="#413494" cx="233.3" cy="403.5" rx="11.9" ry="8.2"/>
		
			<ellipse transform="matrix(0.9104 0.4138 -0.4138 0.9104 207.0658 -77.99)" fill="#413494" cx="283.5" cy="438.9" rx="12.2" ry="8.6"/>
		
			<ellipse transform="matrix(0.9104 0.4138 -0.4138 0.9104 214.8458 -97.0105)" fill="#413494" cx="331.3" cy="447.4" rx="12.3" ry="5.9"/>
		<circle fill="#413494" cx="329.3" cy="421.5" r="7.4"/>
		<circle fill="#413494" cx="299.2" cy="366.8" r="9.3"/>
		<circle fill="#413494" cx="275.3" cy="373.8" r="7.4"/>
		<circle fill="#413494" cx="189.9" cy="332.7" r="6.9"/>
		<circle fill="#413494" cx="205.9" cy="270.8" r="10.4"/>
		<circle fill="#413494" cx="268.3" cy="297.7" r="8.9"/>
		<circle fill="#413494" cx="397.2" cy="290" r="11.3"/>
		<circle fill="#413494" cx="414.2" cy="417.9" r="6.6"/>
		<circle fill="#413494" cx="399" cy="435.3" r="4.8"/>
		<circle fill="#413494" cx="395.9" cy="415.5" r="7.1"/>
		<circle fill="#413494" cx="360.1" cy="454" r="7"/>
		<circle fill="#413494" cx="305.2" cy="465.1" r="6.2"/>
		<circle fill="#413494" cx="248.5" cy="439.3" r="6.2"/>
		<circle fill="#413494" cx="205.4" cy="403.7" r="6.7"/>
		
			<ellipse transform="matrix(-0.9104 -0.4138 0.4138 -0.9104 719.4518 628.3788)" fill="#413494" cx="427.8" cy="236.3" rx="8.4" ry="6.9"/>
	</g>
</g>
</svg>
